<svg width="240" height="58" viewBox="0 0 240 58" fill="none" xmlns="http://www.w3.org/2000/svg">

<!-- Icon: 46×46 at (6,6) -->
<svg x="6" y="6" width="46" height="46" viewBox="0 0 64 64">
  <g clip-path="url(#clip_lockup_light_icon)">
    <path d="M61.2547 2.7453H2.7453V61.2547H61.2547V2.7453Z" fill="#F5F5F7"/>
    <path fill-rule="evenodd" clip-rule="evenodd"
      d="M61.941 0C63.0781 0 64 0.921837 64 2.05898V61.941C64 63.0781 63.0781 64 61.941 64H2.05898C0.921839 64 0 63.0781 0 61.941V2.05898C0 0.921837 0.921837 0 2.05898 0H61.941ZM2.74531 18.1877V61.2547H61.2547V18.1877H2.74531ZM2.74531 15.7855H61.2547V2.74531H2.74531V15.7855Z"
      fill="#1D1D1F"/>
    <circle cx="9.2654" cy="9.2654" r="2.917" fill="#34C759"/>
    <circle cx="18.5308" cy="9.2654" r="2.917" fill="#8E8E93"/>
    <circle cx="27.7962" cy="9.2654" r="2.917" fill="#007AFF"/>
    <path d="M21 58 L21 34 A11 11 0 0 1 43 34 L43 58 Z"
      fill="#FFFFFF" stroke="#1D1D1F" stroke-width="1.5" stroke-linejoin="round"/>
    <circle cx="39" cy="44" r="2" fill="#007AFF"/>
  </g>
  <defs>
    <clipPath id="clip_lockup_light_icon">
      <rect width="64" height="64" fill="white"/>
    </clipPath>
  </defs>
</svg>

<!-- Wordmark: "front" primary + "door" accent -->
<text x="62" y="38"
  font-family="'Urbanist', 'Inter', -apple-system, BlinkMacSystemFont, 'Segoe UI', sans-serif"
  font-weight="700"
  font-size="26"
  letter-spacing="-0.015em">
  <tspan fill="#1D1D1F">front</tspan><tspan fill="#007AFF">door</tspan>
</text>

</svg>
